<svg height="512pt" viewBox="1 0 511 512" width="512pt" xmlns="http://www.w3.org/2000/svg"><path d="m350.960938 411.023438c-35.046876 60.371093-100.394532 100.976562-175.230469 100.976562-74.835938 0-140.183594-40.605469-175.230469-100.976562 25.640625-44.160157 67.488281-77.746094 117.410156-92.597657 18.320313-5.457031 37.730469-8.382812 57.820313-8.382812 64.269531 0 121.527343 29.945312 158.621093 76.636719 6.105469 7.679687 11.652344 15.8125 16.609376 24.34375zm0 0" fill="#adc165"/><path d="m334.351562 386.679688c-57.171874 16.984374-121.246093 8.652343-173.890624-28.222657-16.464844-11.527343-30.679688-25.050781-42.550782-40.03125 18.320313-5.457031 37.730469-8.382812 57.820313-8.382812 64.269531 0 121.527343 29.945312 158.621093 76.636719zm0 0" fill="#99aa52"/><path d="m411.523438 418.859375h-326.328126c-4.332031 0-7.839843-3.507813-7.839843-7.839844 0-4.328125 3.507812-7.835937 7.839843-7.835937h326.328126c4.328124 0 7.839843 3.507812 7.839843 7.839844 0 4.328124-3.511719 7.835937-7.839843 7.835937zm0 0" fill="#99aa52"/><path d="m374.320312 337.773438c-1.085937 10.242187-2.96875 20.414062-5.621093 30.425781-67.480469 17.90625-142.390625.40625-195.308594-52.511719-52.921875-52.910156-70.417969-127.828125-52.511719-195.308594 51.109375-13.554687 106.496094-6.8125 153.339844 20.257813 15 8.664062 29.132812 19.417969 41.96875 32.253906 45.066406 45.070313 64.445312 106.089844 58.132812 164.882813zm0 0" fill="#ffc73b"/><path d="m374.320312 337.773438c-51.195312-29.589844-89.03125-81.246094-98.824218-144.207032-2.792969-17.9375-3.136719-35.695312-1.277344-52.929687 15 8.664062 29.132812 19.417969 41.96875 32.253906 45.066406 45.070313 64.445312 106.089844 58.132812 164.882813zm0 0" fill="#efb025"/><path d="m411.523438 418.859375c-2.007813 0-4.011719-.761719-5.542969-2.292969l-230.75-230.75c-3.0625-3.0625-3.0625-8.023437 0-11.085937 3.058593-3.0625 8.023437-3.0625 11.085937 0l230.75 230.75c3.058594 3.0625 3.058594 8.023437 0 11.085937-1.53125 1.53125-3.539062 2.292969-5.542968 2.292969zm0 0" fill="#efb025"/><path d="m310.542969 175.230469c0 74.839843 40.605469 140.183593 100.980469 175.234375 60.371093-35.046875 100.976562-100.394532 100.976562-175.234375 0-74.835938-40.601562-140.183594-100.976562-175.230469-60.375 35.046875-100.980469 100.394531-100.980469 175.230469zm0 0" fill="#ff903e"/><path d="m411.523438 418.859375c-4.328126 0-7.839844-3.507813-7.839844-7.835937v-326.332032c0-4.328125 3.511718-7.839844 7.839844-7.839844 4.328124 0 7.839843 3.511719 7.839843 7.839844v326.332032c0 4.328124-3.511719 7.835937-7.839843 7.835937zm0 0" fill="#e87425"/></svg>